<mxfile host="app.diagrams.net" modified="2021-02-10T21:49:55.073Z" agent="5.0 (Macintosh; Intel Mac OS X 11_2_0) AppleWebKit/537.36 (KHTML, like Gecko) Chrome/88.0.4324.96 Safari/537.36" etag="-wn2DHzxBdebtrEo7uQv" version="14.2.9" type="github">
  <diagram id="5HRT3p9BloCH7fZctIqe" name="Page-1">
    <mxGraphModel dx="1066" dy="692" grid="1" gridSize="10" guides="1" tooltips="1" connect="1" arrows="1" fold="1" page="1" pageScale="1" pageWidth="850" pageHeight="1100" math="0" shadow="0">
      <root>
        <mxCell id="0" />
        <mxCell id="1" parent="0" />
        <mxCell id="g-QMz1v8HZgrqpc6nbAM-1" value="Entity" style="html=1;" vertex="1" parent="1">
          <mxGeometry x="240" y="100" width="110" height="50" as="geometry" />
        </mxCell>
        <mxCell id="g-QMz1v8HZgrqpc6nbAM-2" value="Program" style="html=1;" vertex="1" parent="1">
          <mxGeometry x="500" y="100" width="110" height="50" as="geometry" />
        </mxCell>
        <mxCell id="g-QMz1v8HZgrqpc6nbAM-3" value="Person" style="html=1;" vertex="1" parent="1">
          <mxGeometry x="160" y="220" width="110" height="50" as="geometry" />
        </mxCell>
        <mxCell id="g-QMz1v8HZgrqpc6nbAM-4" value="Facility" style="html=1;" vertex="1" parent="1">
          <mxGeometry x="315" y="220" width="110" height="50" as="geometry" />
        </mxCell>
        <mxCell id="g-QMz1v8HZgrqpc6nbAM-5" value="Geography" style="html=1;" vertex="1" parent="1">
          <mxGeometry x="560" y="220" width="110" height="50" as="geometry" />
        </mxCell>
        <mxCell id="g-QMz1v8HZgrqpc6nbAM-6" value="Extends" style="endArrow=block;endSize=16;endFill=0;html=1;exitX=0.5;exitY=0;exitDx=0;exitDy=0;" edge="1" parent="1" source="g-QMz1v8HZgrqpc6nbAM-3" target="g-QMz1v8HZgrqpc6nbAM-1">
          <mxGeometry width="160" relative="1" as="geometry">
            <mxPoint x="340" y="360" as="sourcePoint" />
            <mxPoint x="500" y="360" as="targetPoint" />
          </mxGeometry>
        </mxCell>
        <mxCell id="g-QMz1v8HZgrqpc6nbAM-8" value="Extends" style="endArrow=block;endSize=16;endFill=0;html=1;exitX=0.5;exitY=0;exitDx=0;exitDy=0;entryX=0.75;entryY=1;entryDx=0;entryDy=0;" edge="1" parent="1" source="g-QMz1v8HZgrqpc6nbAM-4" target="g-QMz1v8HZgrqpc6nbAM-1">
          <mxGeometry width="160" relative="1" as="geometry">
            <mxPoint x="300" y="440" as="sourcePoint" />
            <mxPoint x="460" y="440" as="targetPoint" />
          </mxGeometry>
        </mxCell>
        <mxCell id="g-QMz1v8HZgrqpc6nbAM-10" value="" style="edgeStyle=entityRelationEdgeStyle;fontSize=12;html=1;endArrow=ERzeroToMany;endFill=1;startArrow=ERzeroToMany;entryX=0;entryY=0.5;entryDx=0;entryDy=0;exitX=1;exitY=0.5;exitDx=0;exitDy=0;" edge="1" parent="1" source="g-QMz1v8HZgrqpc6nbAM-1" target="g-QMz1v8HZgrqpc6nbAM-2">
          <mxGeometry width="100" height="100" relative="1" as="geometry">
            <mxPoint x="370" y="410" as="sourcePoint" />
            <mxPoint x="470" y="310" as="targetPoint" />
          </mxGeometry>
        </mxCell>
        <mxCell id="g-QMz1v8HZgrqpc6nbAM-11" value="" style="edgeStyle=entityRelationEdgeStyle;fontSize=12;html=1;endArrow=ERzeroToMany;startArrow=ERmandOne;exitX=1;exitY=0.5;exitDx=0;exitDy=0;entryX=0;entryY=0.5;entryDx=0;entryDy=0;" edge="1" parent="1" source="g-QMz1v8HZgrqpc6nbAM-4" target="g-QMz1v8HZgrqpc6nbAM-5">
          <mxGeometry width="100" height="100" relative="1" as="geometry">
            <mxPoint x="370" y="410" as="sourcePoint" />
            <mxPoint x="470" y="310" as="targetPoint" />
          </mxGeometry>
        </mxCell>
      </root>
    </mxGraphModel>
  </diagram>
</mxfile>
